<svg width="64" height="64" viewBox="0 0 64 64" xmlns="http://www.w3.org/2000/svg">
  <rect x="8" y="10" width="48" height="42" fill="#C0C0C0"/>
  <rect x="10" y="12" width="44" height="6" fill="#000080"/>
  <rect x="10" y="20" width="44" height="30" fill="#FFFFFF"/>

  <rect x="8" y="10" width="48" height="2" fill="#FFFFFF"/>
  <rect x="8" y="10" width="2" height="42" fill="#FFFFFF"/>
  <rect x="54" y="10" width="2" height="42" fill="#404040"/>
  <rect x="8" y="50" width="48" height="2" fill="#404040"/>

  <rect x="40" y="13" width="5" height="4" fill="#C0C0C0"/>
  <rect x="46" y="13" width="5" height="4" fill="#C0C0C0"/>

  <path d="M18 24H20V26H18V24ZM16 26H18V28H16V26ZM14 28H16V30H14V28ZM16 30H18V32H16V30ZM18 32H20V34H18V32Z" fill="#000000"/>
  <rect x="24" y="23" width="2" height="14" fill="#000000" transform="rotate(20 24 30)"/>
  <rect x="30" y="34" width="10" height="2" fill="#000000"/>
</svg>
