<?xml version="1.0" encoding="UTF-8" standalone="no"?>
<!DOCTYPE svg PUBLIC "-//W3C//DTD SVG 1.1//EN" "http://www.w3.org/Graphics/SVG/1.1/DTD/svg11.dtd">
<svg width="100%" height="100%" viewBox="0 0 36 72" version="1.1" xmlns="http://www.w3.org/2000/svg" xmlns:xlink="http://www.w3.org/1999/xlink" xml:space="preserve" xmlns:serif="http://www.serif.com/" style="fill-rule:evenodd;clip-rule:evenodd;stroke-linejoin:round;stroke-miterlimit:2;">
    <g transform="matrix(1,0,0,1,-83,-176)">
        <g>
            <g transform="matrix(1.02857,0,0,1.02857,73.7429,10.4)">
                <rect x="9" y="196" width="35" height="35" style="fill:rgb(205,204,205);"/>
            </g>
            <g transform="matrix(-1.38815,2.02944e-16,2.65359e-17,-1,248.826,474.494)">
                <rect x="98" y="230.5" width="17" height="2" style="fill:rgb(249,252,255);"/>
            </g>
            <g transform="matrix(-1.38815,2.02944e-16,2.65359e-17,-1,248.838,448.5)">
                <rect x="98" y="230.5" width="17" height="2" style="fill:rgb(147,147,146);"/>
            </g>
            <g transform="matrix(1.11441e-16,1.28193,-1,-7.63673e-17,345.5,92.5776)">
                <rect x="98" y="230.5" width="17" height="2" style="fill:rgb(249,252,255);"/>
            </g>
            <g transform="matrix(-1.57605,1.57605,-0.707107,-0.707107,433.941,227.242)">
                <path d="M114.048,230.5L98.952,230.5L98.027,232.561L114.946,232.5L114.048,230.5Z" style="fill:rgb(147,147,146);"/>
            </g>
            <g transform="matrix(1.57605,1.57605,-0.707107,0.707107,98.2421,-102.941)">
                <path d="M114.048,230.5L98.952,230.5L98.027,232.561L114.907,232.414L114.048,230.5Z" style="fill:rgb(249,252,255);"/>
            </g>
            <g transform="matrix(1.11487e-16,1.28269,-1,-7.6448e-17,319.5,94.2968)">
                <rect x="98" y="230.5" width="17" height="2" style="fill:rgb(147,147,146);"/>
            </g>
            <g transform="matrix(-1.57605,1.57605,-0.707107,-0.707107,431.148,224.449)">
                <path d="M114.946,230.5L98.027,230.439L98.952,232.5L114.048,232.5L114.946,230.5Z" style="fill:rgb(249,252,255);"/>
            </g>
            <g transform="matrix(1.57605,1.57605,-0.707107,0.707107,95.4492,-100.148)">
                <path d="M114.946,230.5L98.054,230.5L98.952,232.5L114.048,232.5L114.946,230.5Z" style="fill:rgb(147,147,146);"/>
            </g>
            <g transform="matrix(1.64459,1.64459,-0.707107,0.707107,89.5257,-108.837)">
                <rect x="98" y="230.5" width="17" height="2" style="fill:rgb(205,204,205);"/>
            </g>
            <g transform="matrix(-1.64459,1.64459,-0.707107,-0.707107,439.823,218.553)">
                <rect x="98" y="230.5" width="17" height="2" style="fill:rgb(205,204,205);"/>
            </g>
            <g transform="matrix(0.666667,0,0,1.02857,67.6667,30.9714)">
                <rect x="23" y="176" width="3" height="35" style="fill:white;"/>
            </g>
            <g transform="matrix(4.08216e-17,0.666667,-1.02857,6.29818e-17,300.029,196.667)">
                <rect x="23" y="176" width="3" height="35" style="fill:white;"/>
            </g>
            <g transform="matrix(-0.666667,-8.16431e-17,1.25964e-16,-1.02857,134.333,429.029)">
                <rect x="23" y="176" width="3" height="35" style="fill:rgb(147,147,146);"/>
            </g>
            <g transform="matrix(4.08216e-17,-0.666667,1,6.12323e-17,-93,263.333)">
                <rect x="23" y="176" width="3" height="35" style="fill:rgb(147,147,146);"/>
            </g>
            <g transform="matrix(1.02857,0,0,1.02857,73.7429,-25.6)">
                <rect x="9" y="196" width="35" height="35" style="fill:rgb(175,175,175);"/>
            </g>
            <g transform="matrix(-1.38815,2.02944e-16,2.65359e-17,-1,248.826,438.494)">
                <rect x="98" y="230.5" width="17" height="2" style="fill:rgb(112,112,112);"/>
            </g>
            <g transform="matrix(-1.38815,2.02944e-16,2.65359e-17,-1,248.838,412.5)">
                <rect x="98" y="230.5" width="17" height="2" style="fill:white;"/>
            </g>
            <g transform="matrix(1.11441e-16,1.28193,-1,-7.63673e-17,345.5,56.5776)">
                <rect x="98" y="230.5" width="17" height="2" style="fill:rgb(112,112,112);"/>
            </g>
            <g transform="matrix(-1.57605,1.57605,-0.707107,-0.707107,433.941,191.242)">
                <path d="M114.048,230.5L98.952,230.5L98.027,232.561L114.946,232.5L114.048,230.5Z" style="fill:white;"/>
            </g>
            <g transform="matrix(1.57605,1.57605,-0.707107,0.707107,98.2421,-138.941)">
                <path d="M114.048,230.5L98.952,230.5L98.027,232.561L114.907,232.414L114.048,230.5Z" style="fill:rgb(112,112,112);"/>
            </g>
            <g transform="matrix(1.11487e-16,1.28269,-1,-7.6448e-17,319.5,58.2968)">
                <rect x="98" y="230.5" width="17" height="2" style="fill:white;"/>
            </g>
            <g transform="matrix(-1.57605,1.57605,-0.707107,-0.707107,431.148,188.449)">
                <path d="M114.946,230.5L98.027,230.439L98.952,232.5L114.048,232.5L114.946,230.5Z" style="fill:rgb(112,112,112);"/>
            </g>
            <g transform="matrix(1.57605,1.57605,-0.707107,0.707107,95.4492,-136.148)">
                <path d="M114.946,230.5L98.054,230.5L98.952,232.5L114.048,232.5L114.946,230.5Z" style="fill:white;"/>
            </g>
            <g transform="matrix(1.64459,1.64459,-0.707107,0.707107,89.5257,-144.837)">
                <rect x="98" y="230.5" width="17" height="2" style="fill:rgb(175,175,175);"/>
            </g>
            <g transform="matrix(-1.64459,1.64459,-0.707107,-0.707107,439.823,182.553)">
                <rect x="98" y="230.5" width="17" height="2" style="fill:rgb(175,175,175);"/>
            </g>
            <g transform="matrix(0.666667,0,0,1.02857,67.6667,-5.02857)">
                <rect x="23" y="176" width="3" height="35" style="fill:rgb(51,51,51);"/>
            </g>
            <g transform="matrix(4.08216e-17,0.666667,-1.02857,6.29818e-17,300.029,160.667)">
                <rect x="23" y="176" width="3" height="35" style="fill:rgb(51,51,51);"/>
            </g>
            <g transform="matrix(-0.666667,-8.16431e-17,1.25964e-16,-1.02857,134.333,393.029)">
                <rect x="23" y="176" width="3" height="35" style="fill:white;"/>
            </g>
            <g transform="matrix(4.08216e-17,-0.666667,1,6.12323e-17,-93,227.333)">
                <rect x="23" y="176" width="3" height="35" style="fill:white;"/>
            </g>
        </g>
    </g>
</svg>
